<svg xmlns="http://www.w3.org/2000/svg" xmlns:xlink="http://www.w3.org/1999/xlink" viewBox="0 0 113.52 92.33"><defs><style>.cls-1{fill:url(#linear-gradient);}.cls-2{fill:url(#linear-gradient-2);}.cls-3{fill:none;}.cls-4{isolation:isolate;}.cls-5{fill:url(#linear-gradient-3);}.cls-6{clip-path:url(#clip-path);}.cls-7{fill:url(#linear-gradient-5);}.cls-12,.cls-15,.cls-8{mix-blend-mode:multiply;}.cls-8{fill:url(#linear-gradient-6);}.cls-13,.cls-16,.cls-17,.cls-9{opacity:0.5;mix-blend-mode:screen;}.cls-9{fill:url(#linear-gradient-7);}.cls-10{clip-path:url(#clip-path-2);}.cls-11{fill:url(#linear-gradient-9);}.cls-12{fill:url(#linear-gradient-10);}.cls-13{fill:url(#linear-gradient-11);}.cls-14{fill:url(#linear-gradient-12);}.cls-15{fill:url(#linear-gradient-13);}.cls-16{fill:url(#linear-gradient-14);}.cls-17{fill:url(#linear-gradient-15);}.cls-18{fill:#00102d;}.cls-19{opacity:0.8;mix-blend-mode:overlay;}.cls-20{fill:url(#radial-gradient);}.cls-21{clip-path:url(#clip-path-3);}.cls-22{clip-path:url(#clip-path-4);}</style><linearGradient id="linear-gradient" x1="57.04" y1="5.72" x2="30.35" y2="63.97" gradientUnits="userSpaceOnUse"><stop offset="0" stop-color="#ff0"/><stop offset="1" stop-color="#ff7400"/></linearGradient><linearGradient id="linear-gradient-2" x1="64.42" y1="19.65" x2="54.67" y2="76.28" gradientUnits="userSpaceOnUse"><stop offset="0.1" stop-color="#00c5ff"/><stop offset="0.27" stop-color="#0095cc"/><stop offset="0.44" stop-color="#006ca1"/><stop offset="0.6" stop-color="#004b7e"/><stop offset="0.75" stop-color="#003466"/><stop offset="0.89" stop-color="#002657"/><stop offset="1" stop-color="#002152"/></linearGradient><linearGradient id="linear-gradient-3" x1="78.16" y1="0.37" x2="43.21" y2="94.41" gradientUnits="userSpaceOnUse"><stop offset="0" stop-color="#81f6ff"/><stop offset="0.08" stop-color="#6dd4e2"/><stop offset="0.2" stop-color="#51a3b7"/><stop offset="0.33" stop-color="#387992"/><stop offset="0.46" stop-color="#245674"/><stop offset="0.59" stop-color="#143b5d"/><stop offset="0.72" stop-color="#09284c"/><stop offset="0.86" stop-color="#021d42"/><stop offset="1" stop-color="#00193f"/></linearGradient><clipPath id="clip-path"><path class="cls-1" d="M59.1,28.47,73.55,12.84a.09.09,0,0,1,.07,0l0,0a.1.1,0,0,1,0,.12L65.29,29.11l7.91,5.25a.07.07,0,0,1,0,.06.07.07,0,0,1,0,.07l-14,18a.08.08,0,0,1-.07,0h0l-.68,0h-.06a.11.11,0,0,1-.07,0,.14.14,0,0,1,0-.07,9.17,9.17,0,0,0-2.52-7.58,7.16,7.16,0,0,0-1.43-1.08l0,0-.07,0a.06.06,0,0,1,0-.06.06.06,0,0,1,0-.07l4-5.23-5-3.2a.1.1,0,0,1,0-.07.06.06,0,0,1,0-.07l1.86-2-1.17-.2a.09.09,0,0,1-.07-.11.09.09,0,0,1,.09-.07h0l1.34.22q2.76.45,5.7.82C46.38,30.37,36,26.71,30,22.71c-4.38-2.9-6.54-6.57-5.64-9.57.7-2.33,3.17-3.71,6.61-3.71.43,0,.89,0,1.35.06a.11.11,0,0,1,.09.08.1.1,0,0,1-.06.1c-2.18.74-3.5,2.12-3.72,3.9-.28,2.28,1.28,4.87,4,6.61,8.18,5.29,19.52,8,26.24,8.74M36.89,84.52l10.72-10a.09.09,0,0,0,0-.07s0-.06,0-.07l-2.12-1.22,2.15-2.56a.08.08,0,0,0,0-.08.06.06,0,0,0,0-.06A21.64,21.64,0,0,1,45,69l0,0h0a16.82,16.82,0,0,1-2.83.38.09.09,0,0,0-.08,0l-3.26,5.09a.08.08,0,0,0,0,.12l2.79,2L36.75,84.4a.09.09,0,0,0,0,.12l.06,0Z"/></clipPath><linearGradient id="linear-gradient-5" x1="68.34" y1="3.05" x2="35.88" y2="73.89" xlink:href="#linear-gradient"/><linearGradient id="linear-gradient-6" x1="38.93" y1="65.97" x2="47.17" y2="85" gradientUnits="userSpaceOnUse"><stop offset="0" stop-color="#7f738d"/><stop offset="1" stop-color="#e4d9ff" stop-opacity="0"/></linearGradient><linearGradient id="linear-gradient-7" x1="58.89" y1="26.12" x2="96.02" y2="12.89" gradientUnits="userSpaceOnUse"><stop offset="0" stop-color="#fff"/><stop offset="1" stop-color="#fff" stop-opacity="0"/></linearGradient><clipPath id="clip-path-2"><path class="cls-2" d="M57.14,28.15,56.62,28a101.16,101.16,0,0,1-15.46-4.87.08.08,0,0,1,0-.05.09.09,0,0,1,0-.07c1.71-4,4.93-6.33,9.57-6.9a15,15,0,0,1,2-.13c2.76,0,7.68.8,9.51,6.18a.08.08,0,0,1,0,.09l-5.36,5.61.37.09a.08.08,0,0,1,.06.11.08.08,0,0,1-.08.07ZM83.19,71.24a.09.09,0,0,0,.06-.09.08.08,0,0,0-.07-.08L82.77,71c3.62.35,6.9.53,9.76.53h0a37.17,37.17,0,0,0,9.32-1C105,69.72,107,67.92,107,66c0-1.65-1.49-3-3.91-3.53h0a.09.09,0,0,0-.08.06.08.08,0,0,0,0,.11,2.93,2.93,0,0,1,1.37,2.92,4.49,4.49,0,0,1-3.52,3,32.23,32.23,0,0,1-7.86.88,41.88,41.88,0,0,1-10-1.16c1.54.17,3,.3,4.41.39h0a.07.07,0,0,0,.06,0C90.3,66,91.72,62.34,91,59.4a.08.08,0,0,0-.09-.07h0a15.77,15.77,0,0,1-2.3.16,20.12,20.12,0,0,1-6.2-1,27.72,27.72,0,0,0,4,.32c4.84,0,8.6-1.63,11.19-4.84s3.41-6.35,2.55-9.16a6.92,6.92,0,0,0-4.5-4.57h0a.1.1,0,0,0-.08,0A6.83,6.83,0,0,1,89.74,44h-.28A8.22,8.22,0,0,0,95,38.19c.62-2.44.07-5.15-1.34-6.58a8.89,8.89,0,0,0-6.42-2.69,13,13,0,0,0-7.1,2.4c-1.89-4.43-5.27-7.12-9.54-7.57h0a.1.1,0,0,0-.08.05l-2.57,5.31a.08.08,0,0,0,0,.11L75.38,34,61.24,52.67a.08.08,0,0,0,0,.08.09.09,0,0,0,.06.06,9.41,9.41,0,0,1,1.24.37h0a.1.1,0,0,0,.08,0,7,7,0,0,1,6.4-3.71,10.87,10.87,0,0,1,7.07,2.89,13.87,13.87,0,0,0-5.78-1.44c-4,0-7,2.46-8.48,6.93a8.91,8.91,0,0,1,.29-3.41.09.09,0,0,0-.07-.11l-.34-.09A15.82,15.82,0,0,0,59,53.85l-.91,0-1.15,0a10.41,10.41,0,0,0-2.46-8.08,8.55,8.55,0,0,0-1.14-1l0,0-.17-.12a9,9,0,0,0-1.32-.76,11,11,0,0,0-4.73-1h-.39a12,12,0,0,1,2.93-.38,9.73,9.73,0,0,1,2.94.44h0a.1.1,0,0,0,.07,0l2.68-3.54a.1.1,0,0,0,0-.13l-6-3.49,3.13-3.28a.1.1,0,0,0,0-.09.11.11,0,0,0-.07-.06c-8.8-1.57-15.93-3.67-21.19-6.24h0l-.05,0A10.76,10.76,0,0,0,27,34.38a14.62,14.62,0,0,0-6.59-1.59c-4.33,0-9.3,2.17-10.27,8.27-.62,3.9.14,7.33,2.14,9.68a9.06,9.06,0,0,0,7.14,3,15.79,15.79,0,0,0,3.31-.38,9.91,9.91,0,0,1-4.51,1,12,12,0,0,1-1.69-.12h0l-.06,0a.11.11,0,0,0,0,.07c.14,5.06,3.69,8,9.73,8a26.7,26.7,0,0,0,9.67-2,24.38,24.38,0,0,1-4.08,2.12l-.05,0a.06.06,0,0,0,0,.07c1.12,2.31,4.41,4.88,8.54,5.35a12.75,12.75,0,0,0,1.38.07,11.38,11.38,0,0,0,1.54-.1,12.66,12.66,0,0,0,2.46-.56A18.72,18.72,0,0,0,48.88,69c.61.26,1.25.5,1.91.71a22.16,22.16,0,0,0,6.67,1,21.3,21.3,0,0,0,14.67-5.93,11.08,11.08,0,0,1-2.54,3.1.1.1,0,0,0,0,.14A14.69,14.69,0,0,0,79.12,72,11.57,11.57,0,0,0,83.19,71.24Z"/></clipPath><linearGradient id="linear-gradient-9" x1="64.09" y1="8.14" x2="49.99" y2="90.06" xlink:href="#linear-gradient-2"/><linearGradient id="linear-gradient-10" x1="43.94" y1="79.38" x2="58.1" y2="49.9" xlink:href="#linear-gradient-6"/><linearGradient id="linear-gradient-11" x1="62.38" y1="41.07" x2="50.93" y2="52.52" xlink:href="#linear-gradient-7"/><linearGradient id="linear-gradient-12" x1="64.78" y1="39.2" x2="69.48" y2="56.38" xlink:href="#linear-gradient-7"/><linearGradient id="linear-gradient-13" x1="21.91" y1="48.96" x2="29.76" y2="67.1" xlink:href="#linear-gradient-6"/><linearGradient id="linear-gradient-14" x1="52.11" y1="6.69" x2="50.64" y2="28.66" xlink:href="#linear-gradient-7"/><linearGradient id="linear-gradient-15" x1="96.89" y1="14.03" x2="73.99" y2="36.78" xlink:href="#linear-gradient-7"/><radialGradient id="radial-gradient" cx="371.71" cy="517.51" r="62.36" gradientTransform="translate(-306.71 -493.19)" gradientUnits="userSpaceOnUse"><stop offset="0" stop-color="#fff"/><stop offset="0.46" stop-color="#84abc8" stop-opacity="0.52"/><stop offset="0.83" stop-color="#256a9d" stop-opacity="0.15"/><stop offset="1" stop-color="#00508c" stop-opacity="0"/></radialGradient><clipPath id="clip-path-3"><path class="cls-3" d="M59.1,28.47,73.55,12.84a.09.09,0,0,1,.07,0l0,0a.1.1,0,0,1,0,.12L65.29,29.11l7.91,5.25a.07.07,0,0,1,0,.06.07.07,0,0,1,0,.07l-14,18a.08.08,0,0,1-.07,0h0l-.68,0h-.06a.11.11,0,0,1-.07,0,.14.14,0,0,1,0-.07,9.17,9.17,0,0,0-2.52-7.58,7.16,7.16,0,0,0-1.43-1.08l0,0-.07,0a.06.06,0,0,1,0-.06.06.06,0,0,1,0-.07l4-5.23-5-3.2a.1.1,0,0,1,0-.07.06.06,0,0,1,0-.07l1.86-2-1.17-.2a.09.09,0,0,1-.07-.11.09.09,0,0,1,.09-.07h0l1.34.22q2.76.45,5.7.82C46.38,30.37,36,26.71,30,22.71c-4.38-2.9-6.54-6.57-5.64-9.57.7-2.33,3.17-3.71,6.61-3.71.43,0,.89,0,1.35.06a.11.11,0,0,1,.09.08.1.1,0,0,1-.06.1c-2.18.74-3.5,2.12-3.72,3.9-.28,2.28,1.28,4.87,4,6.61,8.18,5.29,19.52,8,26.24,8.74M36.89,84.52l10.72-10a.09.09,0,0,0,0-.07s0-.06,0-.07l-2.12-1.22,2.15-2.56a.08.08,0,0,0,0-.08.06.06,0,0,0,0-.06A21.64,21.64,0,0,1,45,69l0,0h0a16.82,16.82,0,0,1-2.83.38.09.09,0,0,0-.08,0l-3.26,5.09a.08.08,0,0,0,0,.12l2.79,2L36.75,84.4a.09.09,0,0,0,0,.12l.06,0Z"/></clipPath><clipPath id="clip-path-4"><path class="cls-3" d="M57.14,28.15,56.62,28a101.16,101.16,0,0,1-15.46-4.87.08.08,0,0,1,0-.05.09.09,0,0,1,0-.07c1.71-4,4.93-6.33,9.57-6.9a15,15,0,0,1,2-.13c2.76,0,7.68.8,9.51,6.18a.08.08,0,0,1,0,.09l-5.36,5.61.37.09a.08.08,0,0,1,.06.11.08.08,0,0,1-.08.07ZM83.19,71.24a.09.09,0,0,0,.06-.09.08.08,0,0,0-.07-.08L82.77,71c3.62.35,6.9.53,9.76.53h0a37.17,37.17,0,0,0,9.32-1C105,69.72,107,67.92,107,66c0-1.65-1.49-3-3.91-3.53h0a.09.09,0,0,0-.08.06.08.08,0,0,0,0,.11,2.93,2.93,0,0,1,1.37,2.92,4.49,4.49,0,0,1-3.52,3,32.23,32.23,0,0,1-7.86.88,41.88,41.88,0,0,1-10-1.16c1.54.17,3,.3,4.41.39h0a.07.07,0,0,0,.06,0C90.3,66,91.72,62.34,91,59.4a.08.08,0,0,0-.09-.07h0a15.77,15.77,0,0,1-2.3.16,20.12,20.12,0,0,1-6.2-1,27.72,27.72,0,0,0,4,.32c4.84,0,8.6-1.63,11.19-4.84s3.41-6.35,2.55-9.16a6.92,6.92,0,0,0-4.5-4.57h0a.1.1,0,0,0-.08,0A6.83,6.83,0,0,1,89.74,44h-.28A8.22,8.22,0,0,0,95,38.19c.62-2.44.07-5.15-1.34-6.58a8.89,8.89,0,0,0-6.42-2.69,13,13,0,0,0-7.1,2.4c-1.89-4.43-5.27-7.12-9.54-7.57h0a.1.1,0,0,0-.08.05l-2.57,5.31a.08.08,0,0,0,0,.11L75.38,34,61.24,52.67a.08.08,0,0,0,0,.08.09.09,0,0,0,.06.06,9.41,9.41,0,0,1,1.24.37h0a.1.1,0,0,0,.08,0,7,7,0,0,1,6.4-3.71,10.87,10.87,0,0,1,7.07,2.89,13.87,13.87,0,0,0-5.78-1.44c-4,0-7,2.46-8.48,6.93a8.91,8.91,0,0,1,.29-3.41.09.09,0,0,0-.07-.11l-.34-.09A15.82,15.82,0,0,0,59,53.85l-.91,0-1.15,0a10.41,10.41,0,0,0-2.46-8.08,8.55,8.55,0,0,0-1.14-1l0,0-.17-.12a9,9,0,0,0-1.32-.76,11,11,0,0,0-4.73-1h-.39a12,12,0,0,1,2.93-.38,9.73,9.73,0,0,1,2.94.44h0a.1.1,0,0,0,.07,0l2.68-3.54a.1.1,0,0,0,0-.13l-6-3.49,3.13-3.28a.1.1,0,0,0,0-.09.11.11,0,0,0-.07-.06c-8.8-1.57-15.93-3.67-21.19-6.24h0l-.05,0A10.76,10.76,0,0,0,27,34.38a14.62,14.62,0,0,0-6.59-1.59c-4.33,0-9.3,2.17-10.27,8.27-.62,3.9.14,7.33,2.14,9.68a9.06,9.06,0,0,0,7.14,3,15.79,15.79,0,0,0,3.31-.38,9.91,9.91,0,0,1-4.51,1,12,12,0,0,1-1.69-.12h0l-.06,0a.11.11,0,0,0,0,.07c.14,5.06,3.69,8,9.73,8a26.7,26.7,0,0,0,9.67-2,24.38,24.38,0,0,1-4.08,2.12l-.05,0a.06.06,0,0,0,0,.07c1.12,2.31,4.41,4.88,8.54,5.35a12.75,12.75,0,0,0,1.38.07,11.38,11.38,0,0,0,1.54-.1,12.66,12.66,0,0,0,2.46-.56A18.72,18.72,0,0,0,48.88,69c.61.26,1.25.5,1.91.71a22.16,22.16,0,0,0,6.67,1,21.3,21.3,0,0,0,14.67-5.93,11.08,11.08,0,0,1-2.54,3.1.1.1,0,0,0,0,.14A14.69,14.69,0,0,0,79.12,72,11.57,11.57,0,0,0,83.19,71.24Z"/></clipPath></defs><title>favicon</title><g class="cls-4"><g id="Layer_1" data-name="Layer 1"><path class="cls-5" d="M31.65,93A1.82,1.82,0,0,1,30,90.32l6.46-12.41-1.72-1.19a1.83,1.83,0,0,1-.53-2.44l2.35-3.87a14.32,14.32,0,0,1-6.87-5.33,19,19,0,0,1-4.66.6,13.24,13.24,0,0,1-9.72-3.79,10.67,10.67,0,0,1-2.95-7C8.11,52.81,5.8,48.44,6,42.74c.34-9.32,7.3-13.5,14.05-13.5a15.31,15.31,0,0,1,4,.52,12.6,12.6,0,0,1,2.08-4.4c-5.95-4-7.09-8.14-6.93-11,.22-4.18,3.81-8.65,13.19-8.65A40.17,40.17,0,0,1,41.94,7a1.82,1.82,0,0,1-.39,3.59c-5.34.15-8.56,1.87-8.88,3.4-.25,1.26,1.41,3.62,6.81,6.29a15,15,0,0,1,12-8.35,17.59,17.59,0,0,1,2.14-.14,12.54,12.54,0,0,1,10.8,5.39l15.27-16A1.82,1.82,0,0,1,81,.65,1.78,1.78,0,0,1,82,1a1.81,1.81,0,0,1,.6,2.28L74.22,20.51a12,12,0,0,1,7.59,6.06,16.39,16.39,0,0,1,6.12-1.3A10.79,10.79,0,0,1,96.29,29a10.09,10.09,0,0,1,2.44,7.82c0,.34-.12.68-.2,1a8.67,8.67,0,0,1,5.35,5.31c1.44,4,.26,9-3,12.74A16.4,16.4,0,0,1,98,58.49h0c5.5.43,9.55,2.13,11.42,4.78a5.55,5.55,0,0,1,.89,4.72c-.65,2.38-3.36,6.37-14.19,6.37h0a66.12,66.12,0,0,1-9.6-.8A16.1,16.1,0,0,1,79,75.43a16.94,16.94,0,0,1-10.91-4.1,23.17,23.17,0,0,1-11.51,3A22.15,22.15,0,0,1,52.65,74a1.88,1.88,0,0,1-.6,1.23L32.86,92.51A1.81,1.81,0,0,1,31.65,93Z"/><path class="cls-1" d="M59.1,28.47,73.55,12.84a.09.09,0,0,1,.07,0l0,0a.1.1,0,0,1,0,.12L65.29,29.11l7.91,5.25a.07.07,0,0,1,0,.06.07.07,0,0,1,0,.07l-14,18a.08.08,0,0,1-.07,0h0l-.68,0h-.06a.11.11,0,0,1-.07,0,.14.14,0,0,1,0-.07,9.17,9.17,0,0,0-2.52-7.58,7.16,7.16,0,0,0-1.43-1.08l0,0-.07,0a.06.06,0,0,1,0-.06.06.06,0,0,1,0-.07l4-5.23-5-3.2a.1.1,0,0,1,0-.07.06.06,0,0,1,0-.07l1.86-2-1.17-.2a.09.09,0,0,1-.07-.11.09.09,0,0,1,.09-.07h0l1.34.22q2.76.45,5.7.82C46.38,30.37,36,26.71,30,22.71c-4.38-2.9-6.54-6.57-5.64-9.57.7-2.33,3.17-3.71,6.61-3.71.43,0,.89,0,1.35.06a.11.11,0,0,1,.09.08.1.1,0,0,1-.06.1c-2.18.74-3.5,2.12-3.72,3.9-.28,2.28,1.28,4.87,4,6.61,8.18,5.29,19.52,8,26.24,8.74M36.89,84.52l10.72-10a.09.09,0,0,0,0-.07s0-.06,0-.07l-2.12-1.22,2.15-2.56a.08.08,0,0,0,0-.08.06.06,0,0,0,0-.06A21.64,21.64,0,0,1,45,69l0,0h0a16.82,16.82,0,0,1-2.83.38.09.09,0,0,0-.08,0l-3.26,5.09a.08.08,0,0,0,0,.12l2.79,2L36.75,84.4a.09.09,0,0,0,0,.12l.06,0Z"/><g class="cls-6"><rect class="cls-7" x="19.74" y="6.22" width="56.86" height="81.7"/><path class="cls-8" d="M48,71.65a6.16,6.16,0,0,1-3.4-1.55,4.44,4.44,0,0,1-1.67.25l-2.39,3.93,2.9,2.48-7.49,8.72s-2.61-6.68-2.73-6.91S39,68.44,39.49,67.64s9.43-2.59,9.43-2.59L52.12,70"/><path class="cls-9" d="M58.73,29h0C20.28,24.94,23.49,9.93,32.27,9.58m41.35,3.33-11,17.36,8.44,5L59.13,52.41,90,31,87.36,14.42"/></g><path class="cls-2" d="M57.14,28.15,56.62,28a101.16,101.16,0,0,1-15.46-4.87.08.08,0,0,1,0-.05.09.09,0,0,1,0-.07c1.71-4,4.93-6.33,9.57-6.9a15,15,0,0,1,2-.13c2.76,0,7.68.8,9.51,6.18a.08.08,0,0,1,0,.09l-5.36,5.61.37.09a.08.08,0,0,1,.06.11.08.08,0,0,1-.08.07ZM83.19,71.24a.09.09,0,0,0,.06-.09.08.08,0,0,0-.07-.08L82.77,71c3.62.35,6.9.53,9.76.53h0a37.17,37.17,0,0,0,9.32-1C105,69.72,107,67.92,107,66c0-1.65-1.49-3-3.91-3.53h0a.09.09,0,0,0-.08.06.08.08,0,0,0,0,.11,2.93,2.93,0,0,1,1.37,2.92,4.49,4.49,0,0,1-3.52,3,32.23,32.23,0,0,1-7.86.88,41.88,41.88,0,0,1-10-1.16c1.54.17,3,.3,4.41.39h0a.07.07,0,0,0,.06,0C90.3,66,91.72,62.34,91,59.4a.08.08,0,0,0-.09-.07h0a15.77,15.77,0,0,1-2.3.16,20.12,20.12,0,0,1-6.2-1,27.72,27.72,0,0,0,4,.32c4.84,0,8.6-1.63,11.19-4.84s3.41-6.35,2.55-9.16a6.92,6.92,0,0,0-4.5-4.57h0a.1.1,0,0,0-.08,0A6.83,6.83,0,0,1,89.74,44h-.28A8.22,8.22,0,0,0,95,38.19c.62-2.44.07-5.15-1.34-6.58a8.89,8.89,0,0,0-6.42-2.69,13,13,0,0,0-7.1,2.4c-1.89-4.43-5.27-7.12-9.54-7.57h0a.1.1,0,0,0-.08.05l-2.57,5.31a.08.08,0,0,0,0,.11L75.38,34,61.24,52.67a.08.08,0,0,0,0,.08.09.09,0,0,0,.06.06,9.41,9.41,0,0,1,1.24.37h0a.1.1,0,0,0,.08,0,7,7,0,0,1,6.4-3.71,10.87,10.87,0,0,1,7.07,2.89,13.87,13.87,0,0,0-5.78-1.44c-4,0-7,2.46-8.48,6.93a8.91,8.91,0,0,1,.29-3.41.09.09,0,0,0-.07-.11l-.34-.09A15.82,15.82,0,0,0,59,53.85l-.91,0-1.15,0a10.41,10.41,0,0,0-2.46-8.08,8.55,8.55,0,0,0-1.14-1l0,0-.17-.12a9,9,0,0,0-1.32-.76,11,11,0,0,0-4.73-1h-.39a12,12,0,0,1,2.93-.38,9.73,9.73,0,0,1,2.94.44h0a.1.1,0,0,0,.07,0l2.68-3.54a.1.1,0,0,0,0-.13l-6-3.49,3.13-3.28a.1.1,0,0,0,0-.09.11.11,0,0,0-.07-.06c-8.8-1.57-15.93-3.67-21.19-6.24h0l-.05,0A10.76,10.76,0,0,0,27,34.38a14.62,14.62,0,0,0-6.59-1.59c-4.33,0-9.3,2.17-10.27,8.27-.62,3.9.14,7.33,2.14,9.68a9.06,9.06,0,0,0,7.14,3,15.79,15.79,0,0,0,3.31-.38,9.91,9.91,0,0,1-4.51,1,12,12,0,0,1-1.69-.12h0l-.06,0a.11.11,0,0,0,0,.07c.14,5.06,3.69,8,9.73,8a26.7,26.7,0,0,0,9.67-2,24.38,24.38,0,0,1-4.08,2.12l-.05,0a.06.06,0,0,0,0,.07c1.12,2.31,4.41,4.88,8.54,5.35a12.75,12.75,0,0,0,1.38.07,11.38,11.38,0,0,0,1.54-.1,12.66,12.66,0,0,0,2.46-.56A18.72,18.72,0,0,0,48.88,69c.61.26,1.25.5,1.91.71a22.16,22.16,0,0,0,6.67,1,21.3,21.3,0,0,0,14.67-5.93,11.08,11.08,0,0,1-2.54,3.1.1.1,0,0,0,0,.14A14.69,14.69,0,0,0,79.12,72,11.57,11.57,0,0,0,83.19,71.24Z"/><g class="cls-10"><rect class="cls-11" x="7.2" y="13.18" width="101.5" height="61.27"/><path class="cls-12" d="M33.46,61.75c1.19,2.84,9.14,7.83,14.6,2a7.72,7.72,0,0,1-1.45,2.73c6.11,3.76,17.51,4.11,25.52-1.63C67.9,70,56.3,75.32,45.45,68.48c-5.57.69-12.07-.89-14.39-6.4"/><path class="cls-13" d="M45.91,43c3-.27,11.51,2.94,9.81,12.31,3.29-.7,5-.35,6.57.38l.58-1.89c-5.53-.85-5.18-1.3-5.18-1.3S57.69,40.91,45.91,43Z"/><path class="cls-14" d="M61.81,58.24c2.26-5.43,9.71-7.44,14.83-5.56C69.7,49.1,63.79,48.82,61.81,58.24Z"/><path class="cls-15" d="M26.09,50.93c-1.32,1.78-3.95,3.8-10.83,2.63C17,61,21,66.2,35.87,60.27c-9.2,2.77-16.51.53-17.33-4.62C23.08,55.27,25.24,53.41,26.09,50.93Z"/><path class="cls-16" d="M42.2,24.09c3.33-7.86,15.17-9,19.91-1.88a17.91,17.91,0,0,0,2.62-2.14c.08-.35-4.26-7.28-4.26-7.28s-15.24-.69-15.58-.54-7.2,7.89-7.2,7.89"/><path class="cls-17" d="M69.1,24.79c5.35.2,10.14,6.57,10.06,9.59,7.12-4.88,11.53-2.74,13.46-.39,1.78,2.17,1.88,7-3.16,10,0,0,7.34-.54,6.72-9.58s-6.11-16.24-6.73-16.08S72.12,13.8,72.12,13.8"/></g><path class="cls-18" d="M97.87,60.31c7.26,2.66,8.81,8.93-8.09,8.37A13.43,13.43,0,0,0,92.91,59a13.81,13.81,0,0,0,6.6-4.3c4.9-5.64,4.3-14.37-3.3-15.59a10.5,10.5,0,0,0,.72-2.56c.79-5.17-5-13.14-16.12-7.51-1.11-4-4.75-6.67-9.25-7.19L81,2.47l-17,17.85c-1.24-3.68-5.44-7.42-12.25-6.57a13.07,13.07,0,0,0-11.15,8.83c-.28-.07-.55-.12-.83-.17C25,15.6,30.71,9.11,41.5,8.79,28.32,5.5,21.3,9.16,21,14.47,20.82,17.86,23.07,21.59,29,25a10.84,10.84,0,0,0-3.5,7.23c-5.67-2.77-17.2-1-17.62,10.61-.23,6.32,2.8,9.6,6.37,10.92-.35,7.77,7.37,12.14,16.35,9.21a12.38,12.38,0,0,0,8.85,6.33l-3.6,6,3.05,2.1-7.2,13.84L50.83,73.92,48.2,72.66l1.17-1.36a21.22,21.22,0,0,0,18.9-2.24C73.79,74.44,81,74.7,86.19,71.67c15.16,2.36,21.36-.42,22.38-4.16C109.42,64.39,106.08,60.94,97.87,60.31ZM50.69,16.23c4.37-.55,9.55.54,11.42,6l-5.47,5.73a101,101,0,0,1-15.45-4.86C43.15,18.5,46.84,16.71,50.69,16.23ZM32.27,9.58c-5.56,1.89-4.63,7.53.24,10.68,7.63,4.92,17.82,7.55,24.54,8.52.59.09,1.15.16,1.68.22l.43-.47.73-.79L73.62,12.91,69,21.75l-.53,1-3.31,6.36,8,5.28L59.3,52.18l-.17.23c-.24,0-.49,0-.75,0a9.22,9.22,0,0,0-2.55-7.65,7.24,7.24,0,0,0-1.44-1.1l-.13-.07,4-5.31L53.17,35l2-2.14c2.4.38,5,.74,7.65,1.06C59,33.12,55.64,32.3,52.62,31.5,39.57,28,33.23,24.77,30,22.64,21,16.66,23.08,8.71,32.27,9.58ZM47.55,74.45l-10.72,10,4.87-7.89-2.86-2,3.27-5.09A16.56,16.56,0,0,0,45,69.06a21.09,21.09,0,0,0,2.59,1.47l-2.22,2.64Zm54.27-4c-2.34.64-6.84,1.32-15.6.71-1.65-.12-3.45-.28-5.42-.5l2.36.47c-3.82,1.41-8.63,1-13.51-3.17a10.91,10.91,0,0,0,2.78-3.57c-7.5,7.07-15.82,7-21.61,5.2-.67-.21-1.31-.45-1.91-.7a18.34,18.34,0,0,1-3.22-1.75,12.52,12.52,0,0,1-2.49.57,12.27,12.27,0,0,1-2.9,0c-4.2-.48-7.41-3.11-8.47-5.29a24.61,24.61,0,0,0,4.86-2.65,29.54,29.54,0,0,1-6.36,2c-7,1.31-13.57-.39-13.77-7.46a10.24,10.24,0,0,0,6.76-1.18c-9.61,2.41-14.32-4-13-12.08,1.31-8.27,10.36-9.93,16.86-6.54a10.64,10.64,0,0,1,4-8.38c4.91,2.4,11.82,4.57,21.21,6.25l-3.21,3.36,6.12,3.55-2.68,3.53a11.16,11.16,0,0,0-6.7.16,11.68,11.68,0,0,1,5.89.92,9.77,9.77,0,0,1,1.3.75l.21.16a7.28,7.28,0,0,1,1.13,1A10.34,10.34,0,0,1,56.87,54c.8,0,1.52,0,2.16,0a15.14,15.14,0,0,1,2.69.35,2.62,2.62,0,0,1,.33.09h0a9.47,9.47,0,0,0-.25,3.86c2-6.35,7.07-9.44,14.83-5.56-5.13-4.89-11.75-4.11-14.07.42h0a9.72,9.72,0,0,0-1.25-.37l.33-.43,3.7-4.89L75.51,34,68,29.15l2.57-5.31c4,.42,7.51,2.85,9.51,7.62,6.15-4.08,11-2.37,13.5.21S96.22,41.77,89,44c3,.33,5.24-1.37,6.6-3.72,4.12,1.28,7.29,6.92,1.91,13.59s-14.23,4.5-16,4.39A19.69,19.69,0,0,0,91,59.42c.68,2.93-.8,6.56-3.6,9.15-1.65-.11-3.46-.27-5.42-.5a34.39,34.39,0,0,0,7.8,1.34,35.53,35.53,0,0,0,11.11-.78c3.41-.87,5-3.94,2.18-6.1C108.48,63.8,108.15,68.77,101.82,70.48Z"/><path class="cls-18" d="M24.12,37.43c3.34-4,9.22-2.16,10.84,1.75.71-3,4.5-5.68,7.22-5.48-2.23-1.25-5.94,0-7.26,2.57A6.18,6.18,0,0,0,24.12,37.43Z"/><path class="cls-18" d="M77.92,61.09c4-2.25,5.11-6.27,3.79-8.59C84.65,56.17,82.18,60.58,77.92,61.09Z"/><g class="cls-19"><path class="cls-20" d="M31.65,93A1.82,1.82,0,0,1,30,90.32l6.46-12.41-1.72-1.19a1.83,1.83,0,0,1-.53-2.44l2.35-3.87a14.32,14.32,0,0,1-6.87-5.33,19,19,0,0,1-4.66.6,13.24,13.24,0,0,1-9.72-3.79,10.67,10.67,0,0,1-2.95-7C8.11,52.81,5.8,48.44,6,42.74c.34-9.32,7.3-13.5,14.05-13.5a15.31,15.31,0,0,1,4,.52,12.6,12.6,0,0,1,2.08-4.4c-5.95-4-7.09-8.14-6.93-11,.22-4.18,3.81-8.65,13.19-8.65A40.17,40.17,0,0,1,41.94,7a1.82,1.82,0,0,1-.39,3.59c-5.34.15-8.56,1.87-8.88,3.4-.25,1.26,1.41,3.62,6.81,6.29a15,15,0,0,1,12-8.35,17.59,17.59,0,0,1,2.14-.14,12.54,12.54,0,0,1,10.8,5.39l15.27-16A1.82,1.82,0,0,1,81,.65,1.78,1.78,0,0,1,82,1a1.81,1.81,0,0,1,.6,2.28L74.22,20.51a12,12,0,0,1,7.59,6.06,16.39,16.39,0,0,1,6.12-1.3A10.79,10.79,0,0,1,96.29,29a10.09,10.09,0,0,1,2.44,7.82c0,.34-.12.68-.2,1a8.67,8.67,0,0,1,5.35,5.31c1.44,4,.26,9-3,12.74A16.4,16.4,0,0,1,98,58.49h0c5.5.43,9.55,2.13,11.42,4.78a5.55,5.55,0,0,1,.89,4.72c-.65,2.38-3.36,6.37-14.19,6.37h0a66.12,66.12,0,0,1-9.6-.8A16.1,16.1,0,0,1,79,75.43a16.94,16.94,0,0,1-10.91-4.1,23.17,23.17,0,0,1-11.51,3A22.15,22.15,0,0,1,52.65,74a1.88,1.88,0,0,1-.6,1.23L32.86,92.51A1.81,1.81,0,0,1,31.65,93Z"/><g class="cls-21"><rect class="cls-20" x="19.74" y="6.22" width="56.86" height="81.7"/><path class="cls-20" d="M48,71.65a6.16,6.16,0,0,1-3.4-1.55,4.44,4.44,0,0,1-1.67.25l-2.39,3.93,2.9,2.48-7.49,8.72s-2.61-6.68-2.73-6.91S39,68.44,39.49,67.64s9.43-2.59,9.43-2.59L52.12,70"/><path class="cls-20" d="M58.73,29h0C20.28,24.94,23.49,9.93,32.27,9.58m41.35,3.33-11,17.36,8.44,5L59.13,52.41,90,31,87.36,14.42"/></g><g class="cls-22"><rect class="cls-20" x="7.2" y="13.18" width="101.5" height="61.27"/><path class="cls-20" d="M33.46,61.75c1.19,2.84,9.14,7.83,14.6,2a7.72,7.72,0,0,1-1.45,2.73c6.11,3.76,17.51,4.11,25.52-1.63C67.9,70,56.3,75.32,45.45,68.48c-5.57.69-12.07-.89-14.39-6.4"/><path class="cls-20" d="M45.91,43c3-.27,11.51,2.94,9.81,12.31,3.29-.7,5-.35,6.57.38l.58-1.89c-5.53-.85-5.18-1.3-5.18-1.3S57.69,40.91,45.91,43Z"/><path class="cls-20" d="M61.81,58.24c2.26-5.43,9.71-7.44,14.83-5.56C69.7,49.1,63.79,48.82,61.81,58.24Z"/><path class="cls-20" d="M26.09,50.93c-1.32,1.78-3.95,3.8-10.83,2.63C17,61,21,66.2,35.87,60.27c-9.2,2.77-16.51.53-17.33-4.62C23.08,55.27,25.24,53.41,26.09,50.93Z"/><path class="cls-20" d="M42.2,24.09c3.33-7.86,15.17-9,19.91-1.88a17.91,17.91,0,0,0,2.62-2.14c.08-.35-4.26-7.28-4.26-7.28s-15.24-.69-15.58-.54-7.2,7.89-7.2,7.89"/><path class="cls-20" d="M69.1,24.79c5.35.2,10.14,6.57,10.06,9.59,7.12-4.88,11.53-2.74,13.46-.39,1.78,2.17,1.88,7-3.16,10,0,0,7.34-.54,6.72-9.58s-6.11-16.24-6.73-16.08S72.12,13.8,72.12,13.8"/></g><path class="cls-20" d="M97.87,60.31c7.26,2.66,8.81,8.93-8.09,8.37A13.43,13.43,0,0,0,92.91,59a13.81,13.81,0,0,0,6.6-4.3c4.9-5.64,4.3-14.37-3.3-15.59a10.5,10.5,0,0,0,.72-2.56c.79-5.17-5-13.14-16.12-7.51-1.11-4-4.75-6.67-9.25-7.19L81,2.47l-17,17.85c-1.24-3.68-5.44-7.42-12.25-6.57a13.07,13.07,0,0,0-11.15,8.83c-.28-.07-.55-.12-.83-.17C25,15.6,30.71,9.11,41.5,8.79,28.32,5.5,21.3,9.16,21,14.47,20.82,17.86,23.07,21.59,29,25a10.84,10.84,0,0,0-3.5,7.23c-5.67-2.77-17.2-1-17.62,10.61-.23,6.32,2.8,9.6,6.37,10.92-.35,7.77,7.37,12.14,16.35,9.21a12.38,12.38,0,0,0,8.85,6.33l-3.6,6,3.05,2.1-7.2,13.84L50.83,73.92,48.2,72.66l1.17-1.36a21.22,21.22,0,0,0,18.9-2.24C73.79,74.44,81,74.7,86.19,71.67c15.16,2.36,21.36-.42,22.38-4.16C109.42,64.39,106.08,60.94,97.87,60.31ZM50.69,16.23c4.37-.55,9.55.54,11.42,6l-5.47,5.73a101,101,0,0,1-15.45-4.86C43.15,18.5,46.84,16.71,50.69,16.23ZM32.27,9.58c-5.56,1.89-4.63,7.53.24,10.68,7.63,4.92,17.82,7.55,24.54,8.52.59.09,1.15.16,1.68.22l.43-.47.73-.79L73.62,12.91,69,21.75l-.53,1-3.31,6.36,8,5.28L59.3,52.18l-.17.23c-.24,0-.49,0-.75,0a9.22,9.22,0,0,0-2.55-7.65,7.24,7.24,0,0,0-1.44-1.1l-.13-.07,4-5.31L53.17,35l2-2.14c2.4.38,5,.74,7.65,1.06C59,33.12,55.64,32.3,52.62,31.5,39.57,28,33.23,24.77,30,22.64,21,16.66,23.08,8.71,32.27,9.58ZM47.55,74.45l-10.72,10,4.87-7.89-2.86-2,3.27-5.09A16.56,16.56,0,0,0,45,69.06a21.09,21.09,0,0,0,2.59,1.47l-2.22,2.64Zm54.27-4c-2.34.64-6.84,1.32-15.6.71-1.65-.12-3.45-.28-5.42-.5l2.36.47c-3.82,1.41-8.63,1-13.51-3.17a10.91,10.91,0,0,0,2.78-3.57c-7.5,7.07-15.82,7-21.61,5.2-.67-.21-1.31-.45-1.91-.7a18.34,18.34,0,0,1-3.22-1.75,12.52,12.52,0,0,1-2.49.57,12.27,12.27,0,0,1-2.9,0c-4.2-.48-7.41-3.11-8.47-5.29a24.61,24.61,0,0,0,4.86-2.65,29.54,29.54,0,0,1-6.36,2c-7,1.31-13.57-.39-13.77-7.46a10.24,10.24,0,0,0,6.76-1.18c-9.61,2.41-14.32-4-13-12.08,1.31-8.27,10.36-9.93,16.86-6.54a10.64,10.64,0,0,1,4-8.38c4.91,2.4,11.82,4.57,21.21,6.25l-3.21,3.36,6.12,3.55-2.68,3.53a11.16,11.16,0,0,0-6.7.16,11.68,11.68,0,0,1,5.89.92,9.77,9.77,0,0,1,1.3.75l.21.16a7.28,7.28,0,0,1,1.13,1A10.34,10.34,0,0,1,56.87,54c.8,0,1.52,0,2.16,0a15.14,15.14,0,0,1,2.69.35,2.62,2.62,0,0,1,.33.09h0a9.47,9.47,0,0,0-.25,3.86c2-6.35,7.07-9.44,14.83-5.56-5.13-4.89-11.75-4.11-14.07.42h0a9.72,9.72,0,0,0-1.25-.37l.33-.43,3.7-4.89L75.51,34,68,29.15l2.57-5.31c4,.42,7.51,2.85,9.51,7.62,6.15-4.08,11-2.37,13.5.21S96.22,41.77,89,44c3,.33,5.24-1.37,6.6-3.72,4.12,1.28,7.29,6.92,1.91,13.59s-14.23,4.5-16,4.39A19.69,19.69,0,0,0,91,59.42c.68,2.93-.8,6.56-3.6,9.15-1.65-.11-3.46-.27-5.42-.5a34.39,34.39,0,0,0,7.8,1.34,35.53,35.53,0,0,0,11.11-.78c3.41-.87,5-3.94,2.18-6.1C108.48,63.8,108.15,68.77,101.82,70.48Z"/><path class="cls-20" d="M24.12,37.43c3.34-4,9.22-2.16,10.84,1.75.71-3,4.5-5.68,7.22-5.48-2.23-1.25-5.94,0-7.26,2.57A6.18,6.18,0,0,0,24.12,37.43Z"/><path class="cls-20" d="M77.92,61.09c4-2.25,5.11-6.27,3.79-8.59C84.65,56.17,82.18,60.58,77.92,61.09Z"/></g></g></g></svg>